<svg xmlns="http://www.w3.org/2000/svg" viewBox="0 0 64 64" fill="none">
  <defs>
    <linearGradient id="bgGrad" x1="0" y1="0" x2="64" y2="64" gradientUnits="userSpaceOnUse">
      <stop offset="0%" stop-color="#8b5cf6" />
      <stop offset="50%" stop-color="#7c3aed" />
      <stop offset="100%" stop-color="#6d28d9" />
    </linearGradient>
    <linearGradient id="boltGrad" x1="16" y1="10" x2="48" y2="54" gradientUnits="userSpaceOnUse">
      <stop offset="0%" stop-color="#ffffff" />
      <stop offset="100%" stop-color="#ede9fe" />
    </linearGradient>
    <filter id="shadow" x="-10%" y="-10%" width="120%" height="120%">
      <feDropShadow dx="0" dy="1.5" stdDeviation="1.5" flood-color="#3b0764" flood-opacity="0.35" />
    </filter>
  </defs>
  <rect width="64" height="64" rx="16" fill="url(#bgGrad)" />
  <rect x="0.75" y="0.75" width="62.5" height="62.5" rx="15.25" stroke="#ffffff" stroke-opacity="0.2" stroke-width="1.5" />
  <g transform="translate(12, 9.5) scale(0.98)" filter="url(#shadow)">
    <path fill="url(#boltGrad)" d="M25.946 44.938c-.664.845-2.021.375-2.021-.698V33.937a2.26 2.26 0 0 0-2.262-2.262H10.287c-.92 0-1.456-1.04-.92-1.788l7.48-10.471c1.07-1.497 0-3.578-1.842-3.578H1.237c-.92 0-1.456-1.04-.92-1.788L10.013.474c.214-.297.556-.474.92-.474h28.894c.92 0 1.456 1.04.92 1.788l-7.48 10.471c-1.07 1.498 0 3.579 1.842 3.579h11.377c.943 0 1.473 1.088.89 1.83L25.947 44.94z"/>
  </g>
</svg>